<svg xmlns="http://www.w3.org/2000/svg" viewBox="0 0 1200 600" role="img" aria-labelledby="title desc">
  <title id="title">ProjBoard project board placeholder</title>
  <desc id="desc">A placeholder project board interface with a navigation sidebar and five Kanban columns.</desc>
  <rect width="1200" height="600" fill="#edf2f5"/>
  <rect width="190" height="600" fill="#172630"/><circle cx="30" cy="32" r="10" fill="#55aaf2"/><text x="50" y="38" fill="#f3f7f8" font-family="Arial" font-size="20" font-weight="700">ProjBoard</text>
  <g fill="#b9c7cf" font-family="Arial" font-size="14"><rect x="14" y="72" width="162" height="42" rx="7" fill="#2a3b47"/><text x="48" y="98" fill="#f2f6f8">Projects</text><text x="48" y="148">My Tasks</text><text x="48" y="198">Calendar</text><text x="48" y="248">My Activity</text><text x="48" y="298">Profile</text></g>
  <text x="220" y="42" fill="#16242d" font-family="Arial" font-size="22" font-weight="700">Website Redesign</text><text x="220" y="66" fill="#657680" font-family="Arial" font-size="12">Modernize the company website with a clean and performant design.</text>
  <g fill="#425968" font-family="Arial" font-size="12"><text x="220" y="105" fill="#2678d8">Board</text><text x="280" y="105">List</text><text x="330" y="105">Calendar</text><text x="410" y="105">Members</text><text x="490" y="105">Settings</text></g><path d="M215 118h955" stroke="#c9d5dc"/>
  <g transform="translate(215 138)" font-family="Arial"><g><rect width="180" height="430" rx="7" fill="#dfe9ee"/><text x="12" y="28" fill="#22343e" font-size="13" font-weight="700">Backlog</text><text x="72" y="28" fill="#6a7d88" font-size="11">4</text></g><g transform="translate(192)"><rect width="180" height="430" rx="7" fill="#e1ede9"/><text x="12" y="28" fill="#25634e" font-size="13" font-weight="700">Ready</text></g><g transform="translate(384)"><rect width="180" height="430" rx="7" fill="#dceaf5"/><text x="12" y="28" fill="#245985" font-size="13" font-weight="700">In Progress</text></g><g transform="translate(576)"><rect width="180" height="430" rx="7" fill="#e6edf1"/><text x="12" y="28" fill="#3c5968" font-size="13" font-weight="700">To Review</text></g><g transform="translate(768)"><rect width="180" height="430" rx="7" fill="#dfede5"/><text x="12" y="28" fill="#286044" font-size="13" font-weight="700">Done</text></g>
  <g fill="#fff" stroke="#d0dae0"><rect x="8" y="45" width="164" height="86" rx="7"/><rect x="8" y="141" width="164" height="86" rx="7"/><rect x="8" y="237" width="164" height="86" rx="7"/><rect x="200" y="45" width="164" height="86" rx="7"/><rect x="200" y="141" width="164" height="86" rx="7"/><rect x="392" y="45" width="164" height="86" rx="7"/><rect x="392" y="141" width="164" height="86" rx="7"/><rect x="584" y="45" width="164" height="86" rx="7"/><rect x="584" y="141" width="164" height="86" rx="7"/><rect x="776" y="45" width="164" height="86" rx="7"/><rect x="776" y="141" width="164" height="86" rx="7"/></g>
  <g fill="#25343d" font-family="Arial" font-size="11"><text x="18" y="68">Design landing page</text><text x="18" y="164">Set up analytics</text><text x="18" y="260">Improve SEO structure</text><text x="210" y="68">Implement authentication</text><text x="210" y="164">Create settings page</text><text x="402" y="68">Develop dashboard</text><text x="402" y="164">Implement task comments</text><text x="594" y="68">Fix responsive issues</text><text x="594" y="164">Add unit tests</text><text x="786" y="68">Project setup</text><text x="786" y="164">User registration</text></g></g>
</svg>

